<svg width="24" height="24" viewBox="0 0 24 24" fill="none" xmlns="http://www.w3.org/2000/svg">
<rect width="24" height="24" rx="12" fill="white"/>
<path d="M16.3751 7.62502C16.0299 7.27983 15.4703 7.27979 15.1251 7.62494L11.9996 10.75L8.87489 7.62505C8.52972 7.27986 7.97006 7.27986 7.62489 7.62506C7.27976 7.97021 7.27976 8.52979 7.62489 8.87494L10.7497 12L7.62489 15.1251C7.27976 15.4702 7.27976 16.0298 7.62489 16.3749C7.97006 16.7201 8.52972 16.7201 8.87489 16.3749L11.9996 13.25L15.1251 16.3751C15.4703 16.7202 16.0299 16.7202 16.3751 16.375C16.7202 16.0298 16.7202 15.4702 16.3751 15.125L13.2503 12L16.3751 8.87498C16.7202 8.5298 16.7202 7.97019 16.3751 7.62502Z" fill="#353C49"/>
</svg>
