<svg width="16" height="16" viewBox="0 0 16 16" fill="none" xmlns="http://www.w3.org/2000/svg">
<path d="M6.87211 13.5383C8.35126 13.538 9.78778 13.0428 10.9529 12.1316L14.0271 15.2058C14.3525 15.5312 14.8801 15.5312 15.2054 15.2058C15.5308 14.8804 15.5308 14.3528 15.2054 14.0275L12.1313 10.9533C13.0429 9.78801 13.5384 8.35115 13.5388 6.87162C13.5388 3.19579 10.5479 0.204956 6.87211 0.204956C3.19628 0.204956 0.205444 3.19579 0.205444 6.87162C0.205444 10.5475 3.19628 13.5383 6.87211 13.5383ZM6.87211 1.87162C9.62961 1.87162 11.8721 4.11412 11.8721 6.87162C11.8721 9.62912 9.62961 11.8716 6.87211 11.8716C4.11461 11.8716 1.87211 9.62912 1.87211 6.87162C1.87211 4.11412 4.11461 1.87162 6.87211 1.87162Z" fill="#DADFD8"/>
</svg>
